<svg width="1466" height="460" viewBox="0 0 1466 460" fill="none" xmlns="http://www.w3.org/2000/svg">
<rect width="1465.19" height="460" fill="#181D2C"/>
<path d="M200.217 255.555H122.937C121.629 255.555 120.975 254.819 120.975 253.347V100.014C120.975 98.5422 121.629 97.8062 122.937 97.8062H126.372C127.68 97.8062 128.335 98.5422 128.335 100.014V246.233C128.335 247.541 129.071 248.195 130.543 248.195H200.217C201.689 248.195 202.425 248.85 202.425 250.158V253.593C202.425 254.901 201.689 255.555 200.217 255.555Z" fill="url(#paint0_linear_25_19)"/>
<path d="M328.072 255.555H253.491C252.183 255.555 251.528 254.819 251.528 253.347V100.014C251.528 98.5422 252.183 97.8062 253.491 97.8062H328.072C329.544 97.8062 330.28 98.4604 330.28 99.7688V102.713C330.28 104.021 329.544 104.675 328.072 104.675H261.096C259.624 104.675 258.888 105.33 258.888 106.638V169.689C258.888 170.997 259.624 171.651 261.096 171.651H321.694C323.166 171.651 323.902 172.306 323.902 173.614V176.558C323.902 177.867 323.166 178.521 321.694 178.521H261.096C259.624 178.521 258.888 179.175 258.888 180.483V246.723C258.888 248.032 259.624 248.686 261.096 248.686H328.072C329.544 248.686 330.28 249.34 330.28 250.649V253.593C330.28 254.901 329.544 255.555 328.072 255.555Z" fill="url(#paint1_linear_25_19)"/>
<path d="M379.702 255.555H376.267C374.795 255.555 374.304 254.819 374.795 253.347L426.315 100.014C426.806 98.5422 427.623 97.8062 428.768 97.8062H434.656C435.801 97.8062 436.619 98.5422 437.11 100.014L488.63 253.347C489.12 254.819 488.63 255.555 487.158 255.555H483.478C482.333 255.555 481.515 254.819 481.024 253.347L466.059 210.659H397.366L382.4 253.347C381.746 254.819 380.846 255.555 379.702 255.555ZM431.222 107.129L400.064 203.299H463.36L432.203 107.129H431.222Z" fill="url(#paint2_linear_25_19)"/>
<path d="M543.429 255.555H539.994C538.686 255.555 538.032 254.819 538.032 253.347V100.014C538.032 98.5422 538.686 97.8062 539.994 97.8062H543.429C544.247 97.8062 544.819 98.1333 545.146 98.7875L627.333 237.891H628.314V100.014C628.314 98.5422 628.969 97.8062 630.277 97.8062H633.712C635.02 97.8062 635.674 98.5422 635.674 100.014V253.347C635.674 254.819 635.02 255.555 633.712 255.555H631.258C630.113 255.555 629.132 254.901 628.314 253.593L546.373 114.979H545.392V253.347C545.392 254.819 544.737 255.555 543.429 255.555Z" fill="url(#paint3_linear_25_19)"/>
<path d="M787.879 222.19V212.377C787.879 210.905 788.533 210.169 789.841 210.169H793.276C794.585 210.169 795.239 210.905 795.239 212.377V221.945C795.239 230.286 797.447 236.828 801.863 241.571C806.279 246.315 812.576 248.686 820.753 248.686H850.193C858.371 248.686 864.668 246.315 869.084 241.571C873.5 236.828 875.708 230.286 875.708 221.945V209.678C875.708 201.991 872.682 195.939 866.631 191.523C860.579 186.944 853.219 183.673 844.551 181.71C836.046 179.584 827.459 177.539 818.791 175.577C810.286 173.451 803.008 170.016 796.956 165.273C790.905 160.53 787.879 154.069 787.879 145.891V131.171C787.879 121.031 790.823 112.935 796.711 106.883C802.762 100.832 810.777 97.8062 820.753 97.8062H850.193C860.17 97.8062 868.103 100.832 873.991 106.883C880.042 112.935 883.068 121.031 883.068 131.171V138.531C883.068 140.003 882.414 140.739 881.105 140.739H877.671C876.362 140.739 875.708 140.003 875.708 138.531V131.417C875.708 123.075 873.5 116.533 869.084 111.79C864.668 107.047 858.371 104.675 850.193 104.675H820.753C812.576 104.675 806.279 107.047 801.863 111.79C797.447 116.533 795.239 123.075 795.239 131.417V145.646C795.239 157.749 805.543 166.091 826.151 170.67C834.819 172.469 843.406 174.514 851.911 176.803C860.579 178.93 867.939 182.691 873.991 188.089C880.042 193.323 883.068 200.355 883.068 209.187V222.19C883.068 232.331 880.042 240.427 873.991 246.478C868.103 252.53 860.17 255.555 850.193 255.555H820.753C810.777 255.555 802.762 252.53 796.711 246.478C790.823 240.427 787.879 232.331 787.879 222.19Z" fill="url(#paint4_linear_25_19)"/>
<path d="M952.34 255.555H948.906C947.597 255.555 946.943 254.819 946.943 253.347V100.014C946.943 98.5422 947.597 97.8062 948.906 97.8062H1004.35C1014.33 97.8062 1022.26 100.832 1028.15 106.883C1034.2 112.935 1037.23 121.031 1037.23 131.171V161.347C1037.23 171.488 1034.2 179.584 1028.15 185.635C1022.26 191.687 1014.33 194.713 1004.35 194.713H956.511C955.039 194.713 954.303 195.367 954.303 196.675V253.347C954.303 254.819 953.649 255.555 952.34 255.555ZM956.511 187.843H1004.35C1012.53 187.843 1018.83 185.472 1023.24 180.729C1027.66 175.986 1029.87 169.443 1029.87 161.102V131.417C1029.87 123.075 1027.66 116.533 1023.24 111.79C1018.83 107.047 1012.53 104.675 1004.35 104.675H956.511C955.039 104.675 954.303 105.33 954.303 106.638V185.881C954.303 187.189 955.039 187.843 956.511 187.843Z" fill="url(#paint5_linear_25_19)"/>
<path d="M1171.53 255.555H1096.95C1095.64 255.555 1094.99 254.819 1094.99 253.347V100.014C1094.99 98.5422 1095.64 97.8062 1096.95 97.8062H1171.53C1173 97.8062 1173.74 98.4604 1173.74 99.7688V102.713C1173.74 104.021 1173 104.675 1171.53 104.675H1104.55C1103.08 104.675 1102.35 105.33 1102.35 106.638V169.689C1102.35 170.997 1103.08 171.651 1104.55 171.651H1165.15C1166.62 171.651 1167.36 172.306 1167.36 173.614V176.558C1167.36 177.867 1166.62 178.521 1165.15 178.521H1104.55C1103.08 178.521 1102.35 179.175 1102.35 180.483V246.723C1102.35 248.032 1103.08 248.686 1104.55 248.686H1171.53C1173 248.686 1173.74 249.34 1173.74 250.649V253.593C1173.74 254.901 1173 255.555 1171.53 255.555Z" fill="url(#paint6_linear_25_19)"/>
<path d="M1295.04 255.555H1263.15C1253.17 255.555 1245.16 252.53 1239.11 246.478C1233.22 240.427 1230.27 232.331 1230.27 222.19V131.171C1230.27 121.031 1233.22 112.935 1239.11 106.883C1245.16 100.832 1253.17 97.8062 1263.15 97.8062H1295.04C1305.02 97.8062 1312.95 100.832 1318.84 106.883C1324.89 112.935 1327.92 121.031 1327.92 131.171V143.438C1327.92 144.91 1327.26 145.646 1325.95 145.646H1322.52C1321.21 145.646 1320.56 144.91 1320.56 143.438V131.417C1320.56 123.075 1318.35 116.533 1313.93 111.79C1309.52 107.047 1303.22 104.675 1295.04 104.675H1263.15C1254.97 104.675 1248.67 107.047 1244.26 111.79C1239.84 116.533 1237.63 123.075 1237.63 131.417V221.945C1237.63 230.286 1239.84 236.828 1244.26 241.571C1248.67 246.315 1254.97 248.686 1263.15 248.686H1295.04C1303.22 248.686 1309.52 246.315 1313.93 241.571C1318.35 236.828 1320.56 230.286 1320.56 221.945V209.923C1320.56 208.451 1321.21 207.715 1322.52 207.715H1325.95C1327.26 207.715 1327.92 208.451 1327.92 209.923V222.19C1327.92 232.331 1324.89 240.427 1318.84 246.478C1312.95 252.53 1305.02 255.555 1295.04 255.555Z" fill="url(#paint7_linear_25_19)"/>
<path d="M210.556 374.815V344.925H227.934V347.91H213.746V358.377H226.789V361.321H213.828V374.815H210.556Z" fill="#00FFEA" fill-opacity="0.5"/>
<path d="M257.563 375.224C255.818 375.224 254.305 374.883 253.024 374.201C251.77 373.52 250.802 372.552 250.121 371.298C249.439 370.017 249.099 368.504 249.099 366.76V353.021C249.099 351.276 249.439 349.777 250.121 348.523C250.802 347.242 251.77 346.261 253.024 345.579C254.305 344.898 255.818 344.557 257.563 344.557C259.307 344.557 260.807 344.898 262.06 345.579C263.342 346.261 264.323 347.242 265.004 348.523C265.686 349.777 266.027 351.276 266.027 353.021V366.76C266.027 368.504 265.686 370.017 265.004 371.298C264.323 372.552 263.342 373.52 262.06 374.201C260.807 374.883 259.307 375.224 257.563 375.224ZM257.563 372.321C259.253 372.321 260.548 371.843 261.447 370.889C262.347 369.908 262.796 368.531 262.796 366.76V353.021C262.796 351.249 262.333 349.886 261.406 348.932C260.507 347.951 259.225 347.46 257.563 347.46C255.9 347.46 254.605 347.951 253.678 348.932C252.779 349.886 252.329 351.249 252.329 353.021V366.76C252.329 368.531 252.779 369.908 253.678 370.889C254.605 371.843 255.9 372.321 257.563 372.321Z" fill="#00FFEA" fill-opacity="0.5"/>
<path d="M288.091 374.815V344.966H297.086C298.858 344.966 300.398 345.32 301.707 346.029C303.042 346.738 304.065 347.733 304.773 349.014C305.509 350.268 305.877 351.753 305.877 353.471C305.877 355.515 305.332 357.26 304.242 358.705C303.151 360.149 301.666 361.117 299.785 361.608L306.245 374.815H302.402L296.432 361.935H291.321V374.815H288.091ZM291.321 358.991H297.086C298.749 358.991 300.071 358.486 301.052 357.478C302.061 356.469 302.565 355.12 302.565 353.43C302.565 351.74 302.061 350.404 301.052 349.423C300.071 348.414 298.749 347.91 297.086 347.91H291.321V358.991Z" fill="#00FFEA" fill-opacity="0.5"/>
<path d="M374.212 375.224C372.303 375.224 370.654 374.897 369.264 374.242C367.874 373.588 366.797 372.661 366.034 371.462C365.271 370.235 364.875 368.777 364.848 367.087H368.119C368.119 368.695 368.664 369.976 369.755 370.93C370.845 371.857 372.331 372.321 374.212 372.321C376.011 372.321 377.415 371.871 378.423 370.971C379.459 370.072 379.977 368.831 379.977 367.25C379.977 365.942 379.623 364.811 378.914 363.857C378.205 362.875 377.21 362.194 375.929 361.812L372.045 360.585C370 359.986 368.419 358.963 367.301 357.519C366.211 356.047 365.666 354.329 365.666 352.367C365.666 350.758 366.02 349.382 366.729 348.237C367.438 347.065 368.433 346.152 369.714 345.497C371.022 344.843 372.549 344.516 374.293 344.516C376.883 344.516 378.955 345.238 380.509 346.683C382.062 348.128 382.839 350.063 382.839 352.489H379.609C379.609 350.936 379.132 349.709 378.178 348.809C377.224 347.91 375.915 347.46 374.253 347.46C372.59 347.46 371.281 347.869 370.327 348.687C369.4 349.477 368.937 350.609 368.937 352.081C368.937 353.362 369.291 354.479 370 355.433C370.709 356.387 371.704 357.069 372.985 357.478L376.869 358.705C378.887 359.331 380.454 360.395 381.572 361.894C382.689 363.393 383.248 365.151 383.248 367.169C383.248 368.777 382.866 370.194 382.103 371.421C381.367 372.62 380.318 373.561 378.955 374.242C377.619 374.897 376.038 375.224 374.212 375.224Z" fill="#00FFEA" fill-opacity="0.5"/>
<path d="M412.877 375.224C411.132 375.224 409.619 374.883 408.338 374.201C407.084 373.52 406.116 372.552 405.435 371.298C404.753 370.017 404.413 368.504 404.413 366.76V353.021C404.413 351.276 404.753 349.777 405.435 348.523C406.116 347.242 407.084 346.261 408.338 345.579C409.619 344.898 411.132 344.557 412.877 344.557C414.621 344.557 416.12 344.898 417.374 345.579C418.656 346.261 419.637 347.242 420.318 348.523C421 349.777 421.341 351.276 421.341 353.021V366.76C421.341 368.504 421 370.017 420.318 371.298C419.637 372.552 418.656 373.52 417.374 374.201C416.12 374.883 414.621 375.224 412.877 375.224ZM412.877 372.321C414.567 372.321 415.861 371.843 416.761 370.889C417.661 369.908 418.11 368.531 418.11 366.76V353.021C418.11 351.249 417.647 349.886 416.72 348.932C415.821 347.951 414.539 347.46 412.877 347.46C411.214 347.46 409.919 347.951 408.992 348.932C408.093 349.886 407.643 351.249 407.643 353.021V366.76C407.643 368.531 408.093 369.908 408.992 370.889C409.919 371.843 411.214 372.321 412.877 372.321Z" fill="#00FFEA" fill-opacity="0.5"/>
<path d="M444.181 374.815V344.966H447.453V371.871H461.191V374.815H444.181Z" fill="#00FFEA" fill-opacity="0.5"/>
<path d="M490.534 375.224C488.789 375.224 487.276 374.883 485.995 374.201C484.741 373.52 483.773 372.552 483.092 371.298C482.41 370.017 482.069 368.504 482.069 366.76V353.021C482.069 351.276 482.41 349.777 483.092 348.523C483.773 347.242 484.741 346.261 485.995 345.579C487.276 344.898 488.789 344.557 490.534 344.557C492.278 344.557 493.777 344.898 495.031 345.579C496.312 346.261 497.294 347.242 497.975 348.523C498.657 349.777 498.997 351.276 498.997 353.021V366.76C498.997 368.504 498.657 370.017 497.975 371.298C497.294 372.552 496.312 373.52 495.031 374.201C493.777 374.883 492.278 375.224 490.534 375.224ZM490.534 372.321C492.224 372.321 493.518 371.843 494.418 370.889C495.318 369.908 495.767 368.531 495.767 366.76V353.021C495.767 351.249 495.304 349.886 494.377 348.932C493.478 347.951 492.196 347.46 490.534 347.46C488.871 347.46 487.576 347.951 486.649 348.932C485.75 349.886 485.3 351.249 485.3 353.021V366.76C485.3 368.531 485.75 369.908 486.649 370.889C487.576 371.843 488.871 372.321 490.534 372.321Z" fill="#00FFEA" fill-opacity="0.5"/>
<path d="M559.89 374.815V344.966H567.291C569.199 344.966 570.848 345.334 572.238 346.07C573.656 346.806 574.746 347.855 575.51 349.218C576.273 350.554 576.654 352.121 576.654 353.921V365.819C576.654 367.646 576.273 369.24 575.51 370.603C574.746 371.939 573.656 372.975 572.238 373.711C570.848 374.447 569.199 374.815 567.291 374.815H559.89ZM563.12 371.912H567.291C569.199 371.912 570.698 371.366 571.789 370.276C572.879 369.186 573.424 367.7 573.424 365.819V353.921C573.424 352.067 572.865 350.595 571.748 349.505C570.657 348.414 569.172 347.869 567.291 347.869H563.12V371.912Z" fill="#00FFEA" fill-opacity="0.5"/>
<path d="M599.046 374.815V344.966H615.892V347.91H602.276V357.764H614.461V360.667H602.276V371.871H615.892V374.815H599.046Z" fill="#00FFEA" fill-opacity="0.5"/>
<path d="M643.639 374.815L635.83 344.966H639.182L644.539 365.819C644.866 367.182 645.152 368.45 645.398 369.622C645.643 370.794 645.82 371.68 645.929 372.28C646.038 371.68 646.202 370.794 646.42 369.622C646.665 368.45 646.951 367.182 647.278 365.819L652.594 344.966H655.865L648.014 374.815H643.639Z" fill="#00FFEA" fill-opacity="0.5"/>
<path d="M684.839 375.224C682.931 375.224 681.282 374.897 679.892 374.242C678.502 373.588 677.425 372.661 676.662 371.462C675.898 370.235 675.503 368.777 675.476 367.087H678.747C678.747 368.695 679.292 369.976 680.383 370.93C681.473 371.857 682.958 372.321 684.839 372.321C686.638 372.321 688.042 371.871 689.051 370.971C690.087 370.072 690.605 368.831 690.605 367.25C690.605 365.942 690.25 364.811 689.542 363.857C688.833 362.875 687.838 362.194 686.557 361.812L682.672 360.585C680.628 359.986 679.047 358.963 677.929 357.519C676.839 356.047 676.294 354.329 676.294 352.367C676.294 350.758 676.648 349.382 677.357 348.237C678.065 347.065 679.06 346.152 680.342 345.497C681.65 344.843 683.177 344.516 684.921 344.516C687.511 344.516 689.583 345.238 691.136 346.683C692.69 348.128 693.467 350.063 693.467 352.489H690.237C690.237 350.936 689.76 349.709 688.806 348.809C687.852 347.91 686.543 347.46 684.88 347.46C683.217 347.46 681.909 347.869 680.955 348.687C680.028 349.477 679.565 350.609 679.565 352.081C679.565 353.362 679.919 354.479 680.628 355.433C681.337 356.387 682.332 357.069 683.613 357.478L687.497 358.705C689.514 359.331 691.082 360.395 692.199 361.894C693.317 363.393 693.876 365.151 693.876 367.169C693.876 368.777 693.494 370.194 692.731 371.421C691.995 372.62 690.945 373.561 689.582 374.242C688.247 374.897 686.666 375.224 684.839 375.224Z" fill="#00FFEA" fill-opacity="0.5"/>
<path d="M759.348 375.224C757.194 375.224 755.504 374.624 754.278 373.424C753.051 372.225 752.438 370.576 752.438 368.477V363.529C752.438 361.948 752.833 360.64 753.623 359.604C754.441 358.568 755.586 357.873 757.058 357.519L756.772 357.396C755.872 356.197 755.218 355.093 754.809 354.084C754.428 353.075 754.237 352.067 754.237 351.058C754.237 349.777 754.537 348.646 755.136 347.665C755.736 346.683 756.568 345.92 757.631 345.375C758.721 344.83 759.989 344.557 761.433 344.557C762.96 344.557 764.282 344.857 765.399 345.457C766.544 346.029 767.417 346.833 768.016 347.869C768.643 348.905 768.957 350.131 768.957 351.549H765.686C765.686 350.704 765.508 349.982 765.154 349.382C764.8 348.755 764.309 348.264 763.682 347.91C763.055 347.555 762.306 347.378 761.433 347.378C760.643 347.378 759.948 347.542 759.348 347.869C758.748 348.169 758.285 348.605 757.958 349.177C757.631 349.723 757.467 350.377 757.467 351.14C757.467 351.849 757.631 352.626 757.958 353.471C758.285 354.289 758.748 355.093 759.348 355.883L766.463 365.656L769.529 360.095H772.882L768.343 368.232L773.168 374.815H769.611L766.708 370.93C764.691 373.793 762.237 375.224 759.348 375.224ZM759.552 372.321C760.588 372.321 761.57 371.993 762.496 371.339C763.423 370.658 764.227 369.69 764.909 368.436L758.612 359.89C757.658 359.999 756.922 360.367 756.404 360.994C755.913 361.621 755.668 362.466 755.668 363.529V368.477C755.668 369.649 756.009 370.59 756.69 371.298C757.399 371.98 758.353 372.321 759.552 372.321Z" fill="#00FFEA" fill-opacity="0.5"/>
<path d="M840.153 375.224C838.245 375.224 836.596 374.897 835.206 374.242C833.815 373.588 832.739 372.661 831.976 371.462C831.212 370.235 830.817 368.777 830.79 367.087H834.061C834.061 368.695 834.606 369.976 835.696 370.93C836.787 371.857 838.272 372.321 840.153 372.321C841.952 372.321 843.356 371.871 844.365 370.971C845.401 370.072 845.919 368.831 845.919 367.25C845.919 365.942 845.564 364.811 844.856 363.857C844.147 362.875 843.152 362.194 841.871 361.812L837.986 360.585C835.942 359.986 834.361 358.963 833.243 357.519C832.153 356.047 831.607 354.329 831.607 352.367C831.607 350.758 831.962 349.382 832.671 348.237C833.379 347.065 834.374 346.152 835.656 345.497C836.964 344.843 838.49 344.516 840.235 344.516C842.825 344.516 844.896 345.238 846.45 346.683C848.004 348.128 848.781 350.063 848.781 352.489H845.551C845.551 350.936 845.074 349.709 844.12 348.809C843.165 347.91 841.857 347.46 840.194 347.46C838.531 347.46 837.223 347.869 836.269 348.687C835.342 349.477 834.879 350.609 834.879 352.081C834.879 353.362 835.233 354.479 835.942 355.433C836.65 356.387 837.645 357.069 838.927 357.478L842.811 358.705C844.828 359.331 846.396 360.395 847.513 361.894C848.631 363.393 849.19 365.151 849.19 367.169C849.19 368.777 848.808 370.194 848.045 371.421C847.309 372.62 846.259 373.561 844.896 374.242C843.561 374.897 841.98 375.224 840.153 375.224Z" fill="#00FFEA" fill-opacity="0.5"/>
<path d="M869.823 374.815V344.966H874.198L877.591 355.106C877.864 355.897 878.123 356.701 878.368 357.519C878.614 358.337 878.791 358.977 878.9 359.44C879.036 358.977 879.213 358.337 879.432 357.519C879.677 356.701 879.936 355.883 880.208 355.065L883.439 344.966H887.814V374.815H884.624V362.057C884.624 360.913 884.652 359.645 884.706 358.255C884.788 356.837 884.883 355.42 884.992 354.002C885.101 352.585 885.21 351.235 885.32 349.954C885.429 348.646 885.524 347.528 885.606 346.601L880.576 361.689H877.142L872.072 346.601C872.181 347.528 872.29 348.619 872.399 349.873C872.508 351.099 872.603 352.421 872.685 353.839C872.767 355.229 872.835 356.633 872.889 358.05C872.971 359.468 873.012 360.803 873.012 362.057V374.815H869.823Z" fill="#00FFEA" fill-opacity="0.5"/>
<path d="M907.629 374.815L915.52 344.966H919.814L927.664 374.815H924.393L922.308 366.719H912.985L910.941 374.815H907.629ZM913.64 363.938H921.613L919.078 353.961C918.669 352.299 918.342 350.908 918.096 349.791C917.851 348.646 917.701 347.91 917.647 347.583C917.592 347.91 917.442 348.646 917.197 349.791C916.952 350.908 916.624 352.299 916.216 353.961L913.64 363.938Z" fill="#00FFEA" fill-opacity="0.5"/>
<path d="M948.952 374.815V344.966H952.223V371.871H965.961V374.815H948.952Z" fill="#00FFEA" fill-opacity="0.5"/>
<path d="M987.78 374.815V344.966H991.051V371.871H1004.79V374.815H987.78Z" fill="#00FFEA" fill-opacity="0.5"/>
<path d="M1071.37 374.815V347.91H1062.98V344.925H1082.94V347.91H1074.6V374.815H1071.37Z" fill="#00FFEA" fill-opacity="0.5"/>
<path d="M1103.82 374.815V344.966H1120.66V347.91H1107.05V357.764H1119.23V360.667H1107.05V371.871H1120.66V374.815H1103.82Z" fill="#00FFEA" fill-opacity="0.5"/>
<path d="M1140.6 374.815L1148.49 344.966H1152.78L1160.64 374.815H1157.36L1155.28 366.719H1145.96L1143.91 374.815H1140.6ZM1146.61 363.938H1154.58L1152.05 353.961C1151.64 352.299 1151.31 350.908 1151.07 349.791C1150.82 348.646 1150.67 347.91 1150.62 347.583C1150.56 347.91 1150.41 348.646 1150.17 349.791C1149.92 350.908 1149.6 352.299 1149.19 353.961L1146.61 363.938Z" fill="#00FFEA" fill-opacity="0.5"/>
<path d="M1180.45 374.815V344.966H1184.83L1188.22 355.106C1188.49 355.897 1188.75 356.701 1189 357.519C1189.24 358.337 1189.42 358.977 1189.53 359.44C1189.66 358.977 1189.84 358.337 1190.06 357.519C1190.3 356.701 1190.56 355.883 1190.84 355.065L1194.07 344.966H1198.44V374.815H1195.25V362.057C1195.25 360.913 1195.28 359.645 1195.33 358.255C1195.42 356.837 1195.51 355.42 1195.62 354.002C1195.73 352.585 1195.84 351.235 1195.95 349.954C1196.06 348.646 1196.15 347.528 1196.23 346.601L1191.2 361.689H1187.77L1182.7 346.601C1182.81 347.528 1182.92 348.619 1183.03 349.873C1183.14 351.099 1183.23 352.421 1183.31 353.839C1183.39 355.229 1183.46 356.633 1183.52 358.05C1183.6 359.468 1183.64 360.803 1183.64 362.057V374.815H1180.45Z" fill="#00FFEA" fill-opacity="0.5"/>
<path d="M1228.44 375.224C1226.53 375.224 1224.88 374.897 1223.49 374.242C1222.1 373.588 1221.02 372.661 1220.26 371.462C1219.5 370.235 1219.1 368.777 1219.07 367.087H1222.35C1222.35 368.695 1222.89 369.976 1223.98 370.93C1225.07 371.857 1226.56 372.321 1228.44 372.321C1230.24 372.321 1231.64 371.871 1232.65 370.971C1233.69 370.072 1234.2 368.831 1234.2 367.25C1234.2 365.942 1233.85 364.811 1233.14 363.857C1232.43 362.875 1231.44 362.194 1230.16 361.812L1226.27 360.585C1224.23 359.986 1222.65 358.963 1221.53 357.519C1220.44 356.047 1219.89 354.329 1219.89 352.367C1219.89 350.758 1220.25 349.382 1220.96 348.237C1221.66 347.065 1222.66 346.152 1223.94 345.497C1225.25 344.843 1226.78 344.516 1228.52 344.516C1231.11 344.516 1233.18 345.238 1234.73 346.683C1236.29 348.128 1237.07 350.063 1237.07 352.489H1233.84C1233.84 350.936 1233.36 349.709 1232.4 348.809C1231.45 347.91 1230.14 347.46 1228.48 347.46C1226.82 347.46 1225.51 347.869 1224.55 348.687C1223.63 349.477 1223.16 350.609 1223.16 352.081C1223.16 353.362 1223.52 354.479 1224.23 355.433C1224.94 356.387 1225.93 357.069 1227.21 357.478L1231.1 358.705C1233.11 359.331 1234.68 360.395 1235.8 361.894C1236.92 363.393 1237.47 365.151 1237.47 367.169C1237.47 368.777 1237.09 370.194 1236.33 371.421C1235.59 372.62 1234.54 373.561 1233.18 374.242C1231.85 374.897 1230.26 375.224 1228.44 375.224Z" fill="#00FFEA" fill-opacity="0.5"/>
<defs>
<linearGradient id="paint0_linear_25_19" x1="98.8946" y1="61.3333" x2="191.823" y2="533.719" gradientUnits="userSpaceOnUse">
<stop stop-color="#00FFEA"/>
<stop offset="1" stop-color="#0099FF"/>
</linearGradient>
<linearGradient id="paint1_linear_25_19" x1="98.8946" y1="61.3333" x2="191.823" y2="533.719" gradientUnits="userSpaceOnUse">
<stop stop-color="#00FFEA"/>
<stop offset="1" stop-color="#0099FF"/>
</linearGradient>
<linearGradient id="paint2_linear_25_19" x1="98.8946" y1="61.3333" x2="191.823" y2="533.719" gradientUnits="userSpaceOnUse">
<stop stop-color="#00FFEA"/>
<stop offset="1" stop-color="#0099FF"/>
</linearGradient>
<linearGradient id="paint3_linear_25_19" x1="98.8946" y1="61.3333" x2="191.823" y2="533.719" gradientUnits="userSpaceOnUse">
<stop stop-color="#00FFEA"/>
<stop offset="1" stop-color="#0099FF"/>
</linearGradient>
<linearGradient id="paint4_linear_25_19" x1="98.8946" y1="61.3333" x2="191.823" y2="533.719" gradientUnits="userSpaceOnUse">
<stop stop-color="#00FFEA"/>
<stop offset="1" stop-color="#0099FF"/>
</linearGradient>
<linearGradient id="paint5_linear_25_19" x1="98.8946" y1="61.3333" x2="191.823" y2="533.719" gradientUnits="userSpaceOnUse">
<stop stop-color="#00FFEA"/>
<stop offset="1" stop-color="#0099FF"/>
</linearGradient>
<linearGradient id="paint6_linear_25_19" x1="98.8946" y1="61.3333" x2="191.823" y2="533.719" gradientUnits="userSpaceOnUse">
<stop stop-color="#00FFEA"/>
<stop offset="1" stop-color="#0099FF"/>
</linearGradient>
<linearGradient id="paint7_linear_25_19" x1="98.8946" y1="61.3333" x2="191.823" y2="533.719" gradientUnits="userSpaceOnUse">
<stop stop-color="#00FFEA"/>
<stop offset="1" stop-color="#0099FF"/>
</linearGradient>
</defs>
</svg>
